<svg width="current" height="current" viewBox="0 0 26 25" fill="none" xmlns="http://www.w3.org/2000/svg">
<g clip-path="url(#clip0_15_2127)">
<path d="M13 0C6.09609 0 0.5 5.59609 0.5 12.5C0.5 19.4031 6.09609 25 13 25C19.9039 25 25.5 19.4031 25.5 12.5C25.5 5.59609 19.9039 0 13 0Z" fill="#current"/>
<path d="M7.66404 9.10303C7.12888 9.10303 6.69373 9.5374 6.69373 10.0733V13.9538C6.69373 14.489 7.1281 14.9241 7.66404 14.9241C8.19998 14.9241 8.63435 14.4897 8.63435 13.9538V10.0733C8.63435 9.5374 8.19919 9.10303 7.66404 9.10303Z" fill="#141C24"/>
<path d="M18.3359 9.10303C17.8008 9.10303 17.3656 9.5374 17.3656 10.0733V13.9538C17.3656 14.489 17.8 14.9241 18.3359 14.9241C18.8719 14.9241 19.3062 14.4897 19.3062 13.9538V10.0733C19.3062 9.5374 18.8719 9.10303 18.3359 9.10303Z" fill="#141C24"/>
<path d="M9.11951 16.8649H10.0898V19.2907C10.0898 19.8259 10.5242 20.261 11.0601 20.261C11.5961 20.261 12.0304 19.8267 12.0304 19.2907V16.8649H13.9711V19.2907C13.9711 19.8259 14.4054 20.261 14.9414 20.261C15.4773 20.261 15.9117 19.8267 15.9117 19.2907V16.8649H16.882V9.58838H9.12029V16.8649H9.11951Z" fill="#141C24"/>
<path d="M15.2914 5.97576L15.7898 5.11248C15.857 4.99607 15.8172 4.84842 15.7007 4.78045C15.5851 4.71326 15.4367 4.7531 15.3695 4.86951L14.8828 5.71092C14.325 5.40076 13.6836 5.22263 13 5.22263C12.3164 5.22263 11.675 5.40076 11.1172 5.7117L10.6312 4.86951C10.564 4.75388 10.4164 4.71404 10.2992 4.78045C10.1836 4.84763 10.1437 4.99529 10.2101 5.1117L10.7086 5.97498C9.74684 6.68123 9.11871 7.81717 9.11871 9.1031H16.8804C16.8804 7.81795 16.2531 6.68201 15.2914 5.97576ZM11.5445 7.64763C11.2765 7.64763 11.0593 7.43045 11.0593 7.16248C11.0593 6.89451 11.2765 6.67732 11.5445 6.67732C11.8125 6.67732 12.0297 6.89451 12.0297 7.16248C12.0297 7.43123 11.8132 7.64763 11.5445 7.64763ZM14.4554 7.64763C14.1875 7.64763 13.9703 7.43045 13.9703 7.16248C13.9703 6.89451 14.1875 6.67732 14.4554 6.67732C14.7234 6.67732 14.9406 6.89451 14.9406 7.16248C14.9406 7.43123 14.7234 7.64763 14.4554 7.64763Z" fill="#141C24"/>
</g>
<defs>
<clipPath id="clip0_15_2127">
<rect width="25" height="25" fill="white" transform="translate(0.5)"/>
</clipPath>
</defs>
</svg>
