<svg width="current" height="current" viewBox="0 0 100 19" fill="none" xmlns="http://www.w3.org/2000/svg">
<path d="M0.380676 18.2191L6.39628 0.780883H10.5159L16.5315 18.2191H13.0673L11.8267 14.474H5.08549L3.82151 18.2191H0.380676ZM5.99836 11.6651H10.9138L8.01137 2.98114H8.90083L5.99836 11.6651Z" fill="#C0C2C2"/>
<path d="M18.2148 18.2191V5.48569H21.0939V8.31795L20.8598 7.89662C21.1563 6.94473 21.6166 6.28153 22.2408 5.90702C22.8806 5.53251 23.6452 5.34525 24.5347 5.34525H25.2837V8.06047H24.1836C23.3097 8.06047 22.6075 8.33355 22.077 8.87971C21.5464 9.41027 21.2811 10.1593 21.2811 11.1268V18.2191H18.2148Z" fill="#C0C2C2"/>
<path d="M33.1022 18.5C31.8383 18.5 30.6991 18.2113 29.6848 17.6339C28.6861 17.041 27.8981 16.2451 27.3207 15.2464C26.7433 14.2321 26.4546 13.093 26.4546 11.829C26.4546 10.565 26.7433 9.43368 27.3207 8.43498C27.8981 7.43628 28.6861 6.64824 29.6848 6.07087C30.6991 5.4935 31.8383 5.20481 33.1022 5.20481C34.0073 5.20481 34.85 5.36866 35.6302 5.69636C36.4104 6.00845 37.0814 6.44538 37.6432 7.00715C38.2206 7.55332 38.6341 8.20871 38.8838 8.97334L36.192 10.1437C35.9579 9.5039 35.56 8.98895 34.9982 8.59883C34.452 8.20871 33.82 8.01365 33.1022 8.01365C32.4312 8.01365 31.8304 8.1775 31.2999 8.5052C30.7849 8.8329 30.3792 9.28543 30.0827 9.86281C29.7862 10.4402 29.638 11.1034 29.638 11.8524C29.638 12.6014 29.7862 13.2646 30.0827 13.842C30.3792 14.4194 30.7849 14.8719 31.2999 15.1996C31.8304 15.5273 32.4312 15.6912 33.1022 15.6912C33.8357 15.6912 34.4754 15.4961 35.0216 15.106C35.5678 14.7159 35.9579 14.1931 36.192 13.5377L38.8838 14.7549C38.6341 15.4727 38.2284 16.1203 37.6666 16.6977C37.1048 17.2594 36.4338 17.7042 35.6536 18.0319C34.8734 18.344 34.0229 18.5 33.1022 18.5Z" fill="#C0C2C2"/>
<path d="M47.0153 18.3596C45.5797 18.3596 44.464 17.9694 43.6681 17.1892C42.8879 16.3934 42.4978 15.2776 42.4978 13.842V8.22432H40.2975V5.48569H40.5316C41.1558 5.48569 41.6395 5.32185 41.9828 4.99415C42.3261 4.66645 42.4978 4.19051 42.4978 3.56632V2.58322H45.5641V5.48569H48.49V8.22432H45.5641V13.6782C45.5641 14.0995 45.6343 14.4584 45.7748 14.7549C45.9308 15.0514 46.1649 15.2776 46.477 15.4337C46.8047 15.5897 47.2182 15.6677 47.7175 15.6677C47.8268 15.6677 47.9516 15.6599 48.0921 15.6443C48.2481 15.6287 48.3963 15.6131 48.5368 15.5975V18.2191C48.3183 18.2503 48.0686 18.2815 47.7878 18.3127C47.5069 18.344 47.2494 18.3596 47.0153 18.3596Z" fill="#C0C2C2"/>
<path d="M50.8795 18.2191V5.48569H53.9458V18.2191H50.8795ZM50.8795 4.05787V0.780883H53.9458V4.05787H50.8795Z" fill="#C0C2C2"/>
<path d="M62.9096 18.5C61.6456 18.5 60.5065 18.2113 59.4922 17.6339C58.4935 17.041 57.7054 16.2451 57.1281 15.2464C56.5507 14.2321 56.262 13.093 56.262 11.829C56.262 10.565 56.5507 9.43368 57.1281 8.43498C57.7054 7.43628 58.4935 6.64824 59.4922 6.07087C60.5065 5.4935 61.6456 5.20481 62.9096 5.20481C63.8147 5.20481 64.6573 5.36866 65.4376 5.69636C66.2178 6.00845 66.8888 6.44538 67.4506 7.00715C68.0279 7.55332 68.4415 8.20871 68.6911 8.97334L65.9993 10.1437C65.7653 9.5039 65.3673 8.98895 64.8056 8.59883C64.2594 8.20871 63.6274 8.01365 62.9096 8.01365C62.2386 8.01365 61.6378 8.1775 61.1073 8.5052C60.5923 8.8329 60.1866 9.28543 59.8901 9.86281C59.5936 10.4402 59.4454 11.1034 59.4454 11.8524C59.4454 12.6014 59.5936 13.2646 59.8901 13.842C60.1866 14.4194 60.5923 14.8719 61.1073 15.1996C61.6378 15.5273 62.2386 15.6912 62.9096 15.6912C63.643 15.6912 64.2828 15.4961 64.829 15.106C65.3751 14.7159 65.7653 14.1931 65.9993 13.5377L68.6911 14.7549C68.4415 15.4727 68.0357 16.1203 67.474 16.6977C66.9122 17.2594 66.2412 17.7042 65.461 18.0319C64.6807 18.344 63.8303 18.5 62.9096 18.5Z" fill="#C0C2C2"/>
<path d="M77.9697 18.5C77.049 18.5 76.1985 18.3205 75.4183 17.9616C74.6537 17.5871 74.0451 17.0566 73.5925 16.37L73.8968 15.7614V18.2191H71.0178V0.5H74.0841V8.01365L73.6159 7.38166C74.0529 6.69506 74.6459 6.1645 75.3949 5.78999C76.1439 5.39987 77.01 5.20481 77.9931 5.20481C79.1946 5.20481 80.2791 5.5013 81.2466 6.09428C82.2141 6.68726 82.9788 7.48309 83.5405 8.48179C84.1179 9.48049 84.4066 10.604 84.4066 11.8524C84.4066 13.0852 84.1257 14.2087 83.5639 15.223C83.0022 16.2373 82.2375 17.041 81.27 17.6339C80.3026 18.2113 79.2024 18.5 77.9697 18.5ZM77.6185 15.6912C78.3208 15.6912 78.9449 15.5273 79.4911 15.1996C80.0373 14.8719 80.4586 14.4194 80.7551 13.842C81.0672 13.2646 81.2232 12.6014 81.2232 11.8524C81.2232 11.1034 81.0672 10.448 80.7551 9.88622C80.4586 9.30884 80.0373 8.85631 79.4911 8.52861C78.9449 8.18531 78.3208 8.01365 77.6185 8.01365C76.9475 8.01365 76.339 8.1775 75.7928 8.5052C75.2622 8.8329 74.8409 9.29324 74.5288 9.88622C74.2323 10.4636 74.0841 11.119 74.0841 11.8524C74.0841 12.6014 74.2323 13.2646 74.5288 13.842C74.8409 14.4194 75.2622 14.8719 75.7928 15.1996C76.339 15.5273 76.9475 15.6912 77.6185 15.6912Z" fill="#C0C2C2"/>
<path d="M86.7444 18.2191V5.48569H89.8107V18.2191H86.7444ZM86.7444 4.05787V0.780883H89.8107V4.05787H86.7444Z" fill="#C0C2C2"/>
<path d="M98.4468 18.3596C97.0111 18.3596 95.8954 17.9694 95.0996 17.1892C94.3193 16.3934 93.9292 15.2776 93.9292 13.842V8.22432H91.729V5.48569H91.963C92.5872 5.48569 93.071 5.32185 93.4143 4.99415C93.7576 4.66645 93.9292 4.19051 93.9292 3.56632V2.58322H96.9955V5.48569H99.9214V8.22432H96.9955V13.6782C96.9955 14.0995 97.0658 14.4584 97.2062 14.7549C97.3622 15.0514 97.5963 15.2776 97.9084 15.4337C98.2361 15.5897 98.6496 15.6677 99.149 15.6677C99.2582 15.6677 99.3831 15.6599 99.5235 15.6443C99.6795 15.6287 99.8278 15.6131 99.9682 15.5975V18.2191C99.7498 18.2503 99.5001 18.2815 99.2192 18.3127C98.9383 18.344 98.6808 18.3596 98.4468 18.3596Z" fill="#C0C2C2"/>
</svg>
