<svg width="current" height="current" viewBox="0 0 10 18" fill="none" xmlns="http://www.w3.org/2000/svg">
<path d="M8.11444 6.02736L2.61134 0.524258C2.27367 0.186749 1.81576 -0.00279802 1.33833 -0.0026855C0.860911 -0.00257298 0.403087 0.18719 0.0655787 0.524858C-0.27193 0.862525 -0.461477 1.32044 -0.461365 1.79786C-0.461252 2.27528 -0.271488 2.73311 0.0661795 3.07061L5.56929 8.57252C5.62516 8.62825 5.66949 8.69447 5.69974 8.76736C5.72999 8.84025 5.74556 8.9184 5.74556 8.99731C5.74556 9.07623 5.72999 9.15438 5.69974 9.22727C5.66949 9.30016 5.62516 9.36637 5.56929 9.42211L0.0661795 14.924C-0.271488 15.2615 -0.461252 15.7193 -0.461365 16.1968C-0.461477 16.6742 -0.27193 17.1321 0.0655787 17.4698C0.403087 17.8074 0.860911 17.9972 1.33833 17.9973C1.81576 17.9974 2.27367 17.8079 2.61134 17.4704L8.11444 11.9673C8.90071 11.1788 9.34225 10.1108 9.34225 8.99731C9.34225 7.88384 8.90071 6.81579 8.11444 6.02736Z" fill="#current"/>
</svg>
