<svg width="current" height="current" viewBox="0 0 18 20" fill="none" xmlns="http://www.w3.org/2000/svg">
<path fill-rule="evenodd" clip-rule="evenodd" d="M16.5 0.75H1.5C0.671573 0.75 0 1.42157 0 2.25V7.76062C0 16.1616 7.10812 18.9487 8.53125 19.4222C8.8352 19.5256 9.1648 19.5256 9.46875 19.4222C10.8938 18.9487 18 16.1616 18 7.76062V2.25C18 1.42157 17.3284 0.75 16.5 0.75ZM16.5 7.76156C16.5 15.1134 10.2797 17.5697 9 17.9972C7.73156 17.5744 1.5 15.12 1.5 7.76156V2.25H16.5V7.76156ZM4.71938 10.2806C4.42632 9.98757 4.42632 9.51243 4.71938 9.21937C5.01243 8.92632 5.48757 8.92632 5.78063 9.21937L7.5 10.9388L12.2194 6.21937C12.5124 5.92632 12.9876 5.92632 13.2806 6.21937C13.5737 6.51243 13.5737 6.98757 13.2806 7.28063L8.03063 12.5306C7.88995 12.6715 7.69906 12.7506 7.5 12.7506C7.30094 12.7506 7.11005 12.6715 6.96937 12.5306L4.71938 10.2806Z" fill="#current"/>
</svg>
