<svg width="current" height="current" viewBox="0 0 26 25" fill="none" xmlns="http://www.w3.org/2000/svg">
<g clip-path="url(#clip0_15_2147)">
<path d="M11.6279 13.1865C11.6279 14.1904 10.9087 15.0073 10.0044 15.0073C9.11426 15.0073 8.38086 14.1904 8.38086 13.1865C8.38086 12.1831 9.1001 11.3657 10.0044 11.3657C10.9155 11.3657 11.6421 12.1904 11.6279 13.1865Z" fill="#current"/>
<path d="M17.6304 13.1865C17.6304 14.1904 16.9185 15.0073 16.0068 15.0073C15.1167 15.0073 14.3833 14.1904 14.3833 13.1865C14.3833 12.1831 15.1025 11.3657 16.0068 11.3657C16.9185 11.3657 17.6445 12.1904 17.6304 13.1865Z" fill="#current"/>
<path d="M13 0C6.09668 0 0.5 5.59668 0.5 12.5C0.5 19.4033 6.09668 25 13 25C19.9033 25 25.5 19.4033 25.5 12.5C25.5 5.59668 19.9033 0 13 0ZM21.9312 17.1021C20.3862 18.2368 18.8892 18.9258 17.4131 19.3823C17.3896 19.3896 17.3643 19.3809 17.3496 19.3608C17.0088 18.8862 16.6992 18.3857 16.4277 17.8604C16.4121 17.8296 16.4263 17.7925 16.4585 17.7803C16.9502 17.5942 17.418 17.3721 17.8682 17.1094C17.9038 17.0884 17.9058 17.0376 17.873 17.0132C17.7778 16.9424 17.6831 16.8677 17.5928 16.793C17.5757 16.7793 17.5527 16.7764 17.5337 16.7856C14.6118 18.1357 11.4111 18.1357 8.45459 16.7856C8.43555 16.7773 8.4126 16.7803 8.39648 16.7939C8.30615 16.8682 8.21143 16.9424 8.1167 17.0132C8.08398 17.0376 8.08643 17.0884 8.12207 17.1094C8.57227 17.3672 9.04004 17.5942 9.53125 17.7808C9.56348 17.793 9.57861 17.8296 9.5625 17.8604C9.29736 18.3867 8.9873 18.8867 8.64014 19.3613C8.625 19.3809 8.6001 19.3896 8.57666 19.3823C7.10742 18.9258 5.61084 18.2368 4.06543 17.1021C4.05273 17.0918 4.04346 17.0762 4.04199 17.0596C3.72754 13.689 4.36914 10.2764 6.71094 6.77734C6.7168 6.76807 6.7251 6.76074 6.73535 6.75684C7.88721 6.22754 9.12207 5.83838 10.4121 5.61621C10.4355 5.61279 10.459 5.62354 10.4712 5.64404C10.6309 5.92676 10.813 6.28857 10.9365 6.58447C12.2964 6.37695 13.6777 6.37695 15.0664 6.58447C15.1895 6.29492 15.3652 5.92676 15.5239 5.64404C15.5361 5.62256 15.5596 5.61182 15.583 5.61621C16.874 5.83887 18.1089 6.22852 19.2603 6.75684C19.2705 6.76074 19.2788 6.76807 19.2837 6.77832C21.3237 9.77881 22.3315 13.1636 21.9546 17.0605C21.9531 17.0771 21.9448 17.0918 21.9312 17.1021Z" fill="#current"/>
</g>
<defs>
<clipPath id="clip0_15_2147">
<rect width="25" height="25" fill="white" transform="translate(0.5)"/>
</clipPath>
</defs>
</svg>
