<svg width="current" height="current" viewBox="0 0 26 25" fill="none" xmlns="http://www.w3.org/2000/svg">
<g clip-path="url(#clip0_15_2152)">
<path d="M13 15.0635C14.4158 15.0635 15.5635 13.9158 15.5635 12.5C15.5635 11.0842 14.4158 9.93652 13 9.93652C11.5842 9.93652 10.4365 11.0842 10.4365 12.5C10.4365 13.9158 11.5842 15.0635 13 15.0635Z" fill="#current"/>
<path d="M13 0.292969C6.25825 0.292969 0.792969 5.75825 0.792969 12.5C0.792969 19.2417 6.25825 24.707 13 24.707C19.7417 24.707 25.207 19.2417 25.207 12.5C25.207 5.75825 19.7417 0.292969 13 0.292969ZM20.5419 15.6025C20.4833 16.7631 20.1572 17.9075 19.3114 18.7443C18.4575 19.589 17.3076 19.9038 16.1359 19.9618H9.86416C8.69229 19.9038 7.54258 19.5892 6.68862 18.7443C5.84282 17.9075 5.51675 16.7631 5.45815 15.6025V9.39746C5.51675 8.23691 5.84287 7.09248 6.68862 6.25566C7.54258 5.41094 8.69243 5.09619 9.86416 5.03823H16.1358C17.3077 5.09619 18.4574 5.41079 19.3114 6.25566C20.1572 7.09248 20.4833 8.23691 20.5418 9.39746L20.5419 15.6025Z" fill="#current"/>
<path d="M16.0566 6.45208C14.529 6.41018 11.4714 6.41018 9.94372 6.45208C9.14875 6.4739 8.24753 6.6718 7.68112 7.27678C7.09255 7.90564 6.87014 8.66541 6.84758 9.51536C6.80793 11.0072 6.84758 15.4847 6.84758 15.4847C6.87341 16.3345 7.09255 17.0944 7.68112 17.7233C8.24753 18.3284 9.14875 18.5261 9.94372 18.548C11.4714 18.5899 14.529 18.5899 16.0566 18.548C16.8516 18.5261 17.7528 18.3282 18.3192 17.7233C18.9078 17.0944 19.1302 16.3346 19.1528 15.4847V9.51536C19.1302 8.66541 18.9078 7.90564 18.3192 7.27678C17.7526 6.67161 16.8514 6.4739 16.0566 6.45208ZM13 16.4734C12.2141 16.4734 11.4459 16.2404 10.7925 15.8038C10.1391 15.3672 9.62977 14.7466 9.32904 14.0206C9.0283 13.2945 8.94962 12.4956 9.10293 11.7249C9.25624 10.9541 9.63467 10.2461 10.1904 9.69041C10.746 9.13473 11.454 8.7563 12.2248 8.60298C12.9956 8.44967 13.7945 8.52836 14.5205 8.82909C15.2466 9.12983 15.8671 9.63911 16.3037 10.2925C16.7403 10.9459 16.9734 11.7142 16.9734 12.5C16.9734 13.5538 16.5547 14.5645 15.8096 15.3096C15.0644 16.0548 14.0538 16.4734 13 16.4734ZM16.9903 9.3468C16.8331 9.34676 16.6795 9.30012 16.5488 9.21278C16.4181 9.12544 16.3163 9.00131 16.2562 8.8561C16.1961 8.71089 16.1804 8.55111 16.2111 8.39697C16.2417 8.24283 16.3175 8.10125 16.4286 7.99013C16.5397 7.87901 16.6813 7.80335 16.8355 7.7727C16.9896 7.74205 17.1494 7.7578 17.2946 7.81796C17.4398 7.87811 17.5639 7.97997 17.6512 8.11065C17.7385 8.24133 17.7851 8.39496 17.7851 8.55212C17.7851 8.6565 17.7646 8.75985 17.7246 8.85628C17.6847 8.95271 17.6261 9.04032 17.5523 9.11411C17.4785 9.18791 17.3909 9.24644 17.2944 9.28637C17.198 9.32629 17.0946 9.34683 16.9903 9.3468Z" fill="#current"/>
</g>
<defs>
<clipPath id="clip0_15_2152">
<rect width="25" height="25" fill="white" transform="translate(0.5)"/>
</clipPath>
</defs>
</svg>
