<svg width="current" height="current" viewBox="0 0 26 25" fill="none" xmlns="http://www.w3.org/2000/svg">
<g clip-path="url(#clip0_15_2136)">
<path fill-rule="evenodd" clip-rule="evenodd" d="M15.9303 7.16075C15.4718 7.16075 14.9307 7.26768 14.3071 7.48152C13.6835 7.69548 13.2342 7.80251 12.959 7.80262C12.745 7.80262 12.3125 7.70783 11.6614 7.51824C11.0103 7.32865 10.4555 7.23385 9.99693 7.23385C8.92093 7.23385 8.02986 7.68636 7.32372 8.59136C6.61759 9.49593 6.26453 10.6666 6.26453 12.1035C6.2673 12.8988 6.38467 13.6895 6.613 14.4513C6.86429 15.2838 7.21208 16.0839 7.64929 16.8356C8.11392 17.6487 8.58162 18.2585 9.0524 18.665C9.52312 19.0716 9.99693 19.2749 10.4738 19.2749C10.7917 19.2749 11.2059 19.1694 11.7164 18.9584C12.2269 18.7475 12.6748 18.642 13.0599 18.642C13.4451 18.642 13.9173 18.7429 14.4768 18.9448C15.0361 19.1467 15.4748 19.2476 15.7927 19.2475C16.1962 19.2475 16.5997 19.0946 17.0032 18.7889C17.4067 18.4831 17.8102 18.0215 18.2137 17.404C18.4691 17.0183 18.7004 16.6171 18.9061 16.2027C19.0911 15.8305 19.246 15.4441 19.3692 15.0471C18.8129 14.8822 18.3177 14.4879 17.8836 13.8642C17.4523 13.2496 17.2245 12.5152 17.2325 11.7644C17.2343 11.255 17.3486 10.7524 17.5672 10.2924C17.7904 9.81237 18.2412 9.2851 18.9198 8.71054C18.4858 8.17248 18.0273 7.77962 17.5443 7.53194C17.0439 7.28032 16.4903 7.15298 15.9303 7.16075ZM15.7744 3.62095C14.6801 3.87129 13.896 4.33592 13.4221 5.01484C12.9483 5.69343 12.7053 6.4973 12.6931 7.42646C13.17 7.4021 13.5521 7.32566 13.8395 7.19715C14.1553 7.04867 14.4412 6.84357 14.6831 6.592C15.0597 6.22576 15.3564 5.78548 15.5543 5.29892C15.7378 4.83428 15.8295 4.40637 15.8295 4.01518C15.8295 3.95409 15.8264 3.89301 15.8203 3.83158C15.8119 3.76004 15.7966 3.68949 15.7744 3.62095ZM13 0.418945C19.6824 0.418945 25.0996 5.83594 25.0996 12.5187C25.0996 19.2011 19.6824 24.6181 13 24.6181C6.31757 24.6181 0.900391 19.2011 0.900391 12.5187C0.900391 5.83596 6.31756 0.418945 13 0.418945Z" fill="#current"/>
</g>
<defs>
<clipPath id="clip0_15_2136">
<rect width="25" height="25" fill="white" transform="translate(0.5)"/>
</clipPath>
</defs>
</svg>
