<svg width="current" height="current" viewBox="0 0 24 24" fill="none" xmlns="http://www.w3.org/2000/svg">
<path d="M18.5004 13.6187L23.7941 8.32502C24.0686 8.05043 24.0686 7.60526 23.7941 7.33066L16.6693 0.205945C16.3948 -0.0686484 15.9496 -0.0686484 15.675 0.205945L10.3813 5.49959L5.08765 0.205945C4.82585 -0.0663984 4.35509 -0.0663984 4.09329 0.205945C3.13746 1.16177 2.84899 2.5354 3.22619 3.7443C2.56455 4.52998 2.30116 5.53896 2.43734 6.50238C2.43691 6.5028 2.43645 6.50318 2.43598 6.5036C1.06521 7.87432 1.06521 10.1047 2.43598 11.4754L3.42068 12.4602L0.205945 15.675C-0.0686484 15.9496 -0.0686484 16.3947 0.205945 16.6693L7.33066 23.7941C7.60521 24.0686 8.05048 24.0686 8.32502 23.7941L11.5399 20.5792L12.5246 21.564C13.2099 22.2494 14.1102 22.592 15.0104 22.592C15.9107 22.592 16.811 22.2493 17.4964 21.564C17.4968 21.5636 17.4972 21.563 17.4976 21.5626C18.4747 21.6991 19.4692 21.4332 20.2556 20.7738C20.5977 20.8805 20.9528 20.9348 21.3081 20.9348C22.2084 20.9348 23.1086 20.5921 23.794 19.9067C24.0686 19.6321 24.0686 19.1869 23.794 18.9124L18.5004 13.6187ZM9.96321 20.1671C8.68034 19.2911 6.9754 19.2911 5.69252 20.1671L3.83285 18.3075C4.70885 17.0246 4.70885 15.3196 3.83285 14.0367L14.0368 3.83285C14.6782 4.27085 15.425 4.49079 16.1721 4.49079C16.9193 4.49079 17.666 4.27085 18.3075 3.83285L20.1671 5.69248C19.2911 6.97535 19.2911 8.68034 20.1671 9.96321L9.96321 20.1671ZM21.1894 8.94091C20.8234 8.24688 20.8234 7.40885 21.1894 6.71477L22.3025 7.82782L21.1894 8.94091ZM16.1721 1.69751L17.2852 2.81055C16.5911 3.17655 15.7531 3.17655 15.0591 2.81055L16.1721 1.69751ZM3.43038 10.4811C2.7822 9.83285 2.6448 8.86432 3.0184 8.08034L3.43038 8.49232L3.8944 8.95634C3.91155 8.97349 3.92937 8.98957 3.94779 9.00462C4.20555 9.21485 4.5776 9.21485 4.83537 9.00462C4.85379 8.98962 4.8716 8.97349 4.88876 8.95634C5.16335 8.68174 5.16335 8.23657 4.88876 7.96198L4.42455 7.49777C3.77651 6.84954 3.63926 5.8811 4.01276 5.09721L5.88316 6.96762C5.90032 6.98477 5.91813 7.00085 5.93655 7.0159C6.19432 7.22613 6.56637 7.22613 6.82413 7.0159C6.84255 7.0009 6.86037 6.98477 6.87752 6.96762C7.15212 6.69302 7.15212 6.24785 6.87752 5.97326L5.08765 4.18338C4.43946 3.5352 4.30216 2.56666 4.67566 1.78268L9.38693 6.49395L4.41509 11.4658L3.43038 10.4811ZM2.81055 15.0591C3.1766 15.7531 3.1766 16.5912 2.81055 17.2852L1.69751 16.1722L2.81055 15.0591ZM7.82782 22.3025L6.71477 21.1894C7.4088 20.8234 8.24684 20.8234 8.94087 21.1894L7.82782 22.3025ZM19.8166 18.9123L18.0267 17.1224C17.7521 16.8478 17.3069 16.8478 17.0323 17.1224C16.7577 17.397 16.7577 17.8422 17.0323 18.1168L18.9027 19.9871C18.1188 20.3606 17.1501 20.2234 16.5019 19.5752L16.0379 19.1111C15.7634 18.8366 15.3182 18.8366 15.0436 19.1111C14.769 19.3857 14.769 19.8309 15.0436 20.1055L15.9196 20.9816C15.1357 21.3551 14.167 21.2178 13.5188 20.5696L12.5341 19.5848L17.506 14.613L22.2173 19.3243C21.4331 19.6979 20.4647 19.5605 19.8166 18.9123Z" fill="current"/>
<path d="M16.6056 6.39998L15.707 7.29858C15.4325 7.57317 15.4325 8.01834 15.707 8.29293C15.8443 8.43023 16.0243 8.49886 16.2042 8.49886C16.3841 8.49886 16.5641 8.43023 16.7014 8.29289L17.5999 7.39429C17.8745 7.1197 17.8745 6.67453 17.5999 6.39993C17.3254 6.12539 16.8802 6.12539 16.6056 6.39998Z" fill="current"/>
<path d="M7.29851 15.707L6.39992 16.6056C6.12532 16.8802 6.12532 17.3254 6.39992 17.6C6.53721 17.7373 6.71717 17.8059 6.89707 17.8059C7.07698 17.8059 7.25698 17.7373 7.39423 17.6L8.29282 16.7014C8.56741 16.4268 8.56741 15.9816 8.29282 15.707C8.01832 15.4325 7.5731 15.4325 7.29851 15.707Z" fill="current"/>
<path d="M12 9.32812C10.5267 9.32812 9.32812 10.5267 9.32812 12C9.32812 13.4733 10.5267 14.6719 12 14.6719C13.4733 14.6719 14.6719 13.4733 14.6719 12C14.6719 10.5267 13.4733 9.32812 12 9.32812ZM12 13.2656C11.3021 13.2656 10.7344 12.6979 10.7344 12C10.7344 11.3021 11.3021 10.7344 12 10.7344C12.6979 10.7344 13.2656 11.3021 13.2656 12C13.2656 12.6979 12.6979 13.2656 12 13.2656Z" fill="current"/>
</svg>
