<svg width="current" height="current" viewBox="0 0 24 24" fill="none" xmlns="http://www.w3.org/2000/svg">
<g clip-path="url(#clip0_14_1713)">
<path d="M12.03 1.80935C14.7815 2.7206 17.6057 3.79357 20.0207 4.73013C20.1885 5.82935 20.4187 7.71466 20.4628 9.99372C20.5017 12.5897 20.287 14.0217 20.1918 14.5209C19.9926 15.2086 19.5745 15.9558 18.9492 16.7414C18.2076 17.6723 17.1979 18.6403 15.9482 19.6176C15.9473 19.6181 15.9464 19.619 15.9459 19.6195C14.1698 21.0136 12.5254 21.9122 12.03 22.1709C11.5345 21.9126 9.89198 21.0159 8.11683 19.6228L8.11448 19.6209C6.86526 18.644 5.85604 17.6765 5.11589 16.7461C4.52198 15.9993 4.11511 15.2868 3.90511 14.6283C3.89948 14.6062 3.89339 14.5842 3.88636 14.5617C3.79261 14.2443 3.4912 12.9661 3.53667 9.81982C3.58636 7.81544 3.77011 6.02482 4.05698 4.71794C6.46448 3.7856 9.28026 2.71732 12.03 1.80888M12.03 0.00372314C11.8889 0.00372314 11.7473 0.0262231 11.6099 0.0716919C8.91417 0.957629 6.14901 1.99685 3.33698 3.08622C2.9587 3.23294 2.64136 3.50435 2.43511 3.83435C2.45104 3.83622 1.85714 5.69013 1.75589 9.78466C1.69589 13.8797 2.20589 15.1064 2.18901 15.1078C2.46511 16.0078 2.98167 16.9233 3.72182 17.8542C4.54917 18.8939 5.66714 19.9678 7.01761 21.0234C9.25307 22.7779 11.3451 23.8265 11.4328 23.8636C11.6221 23.9564 11.8232 24.0033 12.0304 24.0033H12.0309C12.2385 24.0033 12.4396 23.9559 12.629 23.8626C12.7171 23.8256 14.8115 22.7737 17.046 21.0197C18.397 19.9631 19.5149 18.8892 20.3428 17.85C21.1359 16.8529 21.6721 15.8747 21.9314 14.9137C21.921 14.9123 22.296 13.4086 22.244 9.96279C22.1779 6.51747 21.6979 3.97638 21.7045 3.97404C21.5048 3.5845 21.1546 3.25872 20.7262 3.09232C17.9137 2.00247 15.1481 0.961379 12.4518 0.0726294C12.3135 0.0271606 12.172 0.00419189 12.0304 0.00419189L12.03 0.00372314Z" fill="current"/>
<path d="M12.0286 16.5501C11.5148 16.5501 11.032 16.3505 10.6692 15.9872C10.3059 15.6239 10.1058 15.1411 10.1058 14.6278V13.1264C9.32013 12.5381 8.85044 11.6166 8.84998 10.6092C8.84998 8.87249 10.2628 7.45921 11.9995 7.45874C12.8409 7.45874 13.6322 7.7864 14.227 8.38124C14.8219 8.97608 15.15 9.76733 15.15 10.6087C15.15 11.5851 14.7014 12.4912 13.9509 13.0823V14.6278C13.9509 15.1416 13.7512 15.6244 13.3879 15.9872C13.0247 16.3505 12.5418 16.5501 12.0286 16.5506V16.5501ZM12 9.23952C11.2453 9.23952 10.6312 9.85358 10.6312 10.6083C10.6312 11.1314 10.9228 11.6016 11.3925 11.835C11.6953 11.9855 11.8865 12.2944 11.8865 12.6323V14.6273C11.8865 14.7051 11.9503 14.7689 12.0281 14.7689C12.0764 14.7689 12.1092 14.7464 12.1279 14.7276C12.1467 14.7089 12.1692 14.6761 12.1692 14.6278V12.6042C12.1692 12.2751 12.3506 11.9728 12.6412 11.8181C13.0898 11.5791 13.3687 11.1159 13.3683 10.6087C13.3683 10.2431 13.2258 9.89952 12.9675 9.64077C12.7087 9.38249 12.3651 9.23999 11.9995 9.23999L12 9.23952Z" fill="current"/>
</g>
<defs>
<clipPath id="clip0_14_1713">
<rect width="24" height="24" fill="white"/>
</clipPath>
</defs>
</svg>
