<svg width="current" height="current" viewBox="0 0 26 25" fill="none" xmlns="http://www.w3.org/2000/svg">
<g clip-path="url(#clip0_15_2228)">
<path d="M13 0C6.09609 0 0.5 5.59609 0.5 12.5C0.5 19.4031 6.09609 25 13 25C19.9039 25 25.5 19.4031 25.5 12.5C25.5 5.59609 19.9039 0 13 0Z" fill="#current"/>
<path d="M8.22393 5.75H17.8985V19.5074H16.4784V13.2056H16.4644C16.3075 11.464 14.8437 10.0991 13.0612 10.0991C11.2787 10.0991 9.81493 11.464 9.65798 13.2056H9.64405V19.5074H8.22393V5.75Z" fill="#141C24"/>
<path d="M5.64996 7.70266L6.22689 9.65533H6.71505V17.5547C6.46996 17.5547 6.27127 17.7534 6.27127 17.9985V18.5311H6.18251C5.93741 18.5311 5.73872 18.7298 5.73872 18.9749V19.5074H10.7091V18.9749C10.7091 18.7298 10.5104 18.5311 10.2653 18.5311H10.1766V17.9985C10.1766 17.7534 9.9779 17.5547 9.7328 17.5547H9.20026V7.70266H5.64996Z" fill="#141C24"/>
<path d="M16.5671 17.5547C16.322 17.5547 16.1233 17.7534 16.1233 17.9985V18.5311H16.0346C15.7895 18.5311 15.5908 18.7298 15.5908 18.9749V19.5074H20.5612V18.9749C20.5612 18.7298 20.3625 18.5311 20.1174 18.5311H20.0287V17.9985C20.0287 17.7534 19.83 17.5547 19.5849 17.5547V9.65533H20.073L20.65 7.70266H17.0997V17.5547H16.5671Z" fill="#141C24"/>
</g>
<defs>
<clipPath id="clip0_15_2228">
<rect width="25" height="25" fill="white" transform="translate(0.5)"/>
</clipPath>
</defs>
</svg>
