<svg width="current" height="current" viewBox="0 0 26 25" fill="none" xmlns="http://www.w3.org/2000/svg">
<g clip-path="url(#clip0_15_2139)">
<path d="M13 0C6.09668 0 0.5 5.59668 0.5 12.5C0.5 19.4033 6.09668 25 13 25C19.9033 25 25.5 19.4033 25.5 12.5C25.5 5.59668 19.9033 0 13 0Z" fill="#current"/>
<path d="M14.3675 11.3689L19.7186 5.14868H18.4506L13.8042 10.5496L10.0932 5.14868H5.81293L11.4247 13.3158L5.81293 19.8387H7.08104L11.9877 14.1351L15.9068 19.8387H20.1871L14.3672 11.3689H14.3675ZM7.53795 6.10331H9.48569L18.4511 18.9275H16.5034L7.53795 6.10331Z" fill="#141C24"/>
</g>
<defs>
<clipPath id="clip0_15_2139">
<rect width="25" height="25" fill="white" transform="translate(0.5)"/>
</clipPath>
</defs>
</svg>
